<svg width="18" height="19" viewBox="0 0 18 19" fill="none" xmlns="http://www.w3.org/2000/svg">
<path d="M8.61829 0.354508C8.89241 0.192111 9.24683 0.219057 9.49426 0.435563L17.4943 7.43556C17.6569 7.57797 17.7501 7.78381 17.7501 8.00002V18C17.7501 18.4142 17.4143 18.75 17.0001 18.75H12.0001C11.5859 18.75 11.2501 18.4142 11.2501 18V14C11.2501 13.4033 11.0129 12.8312 10.5909 12.4092C10.169 11.9872 9.59686 11.75 9.00012 11.75C8.40339 11.75 7.83126 11.9872 7.4093 12.4092C6.98735 12.8312 6.75012 13.4033 6.75012 14V18C6.75012 18.4142 6.41434 18.75 6.00012 18.75H1.00012C0.585909 18.75 0.250122 18.4142 0.250122 18V8.00002C0.250122 7.78381 0.343306 7.57797 0.505981 7.43556L8.50598 0.435563L8.61829 0.354508ZM12.7501 17.25H16.2501V8.33986L9.00012 1.99611L1.75012 8.33986V17.25H5.25012V14C5.25012 13.0055 5.64549 12.0519 6.34875 11.3486C7.05202 10.6454 8.00556 10.25 9.00012 10.25C9.99468 10.25 10.9482 10.6454 11.6515 11.3486C12.3548 12.0519 12.7501 13.0055 12.7501 14V17.25Z" fill="#808080"/>
</svg>
